# xmcd CD database file
#
# Track frame offsets:
#	150
#	16228
#	46458
#	88207
#	116542
#	145226
#	176095
#	207196
#	242589
#
# Disc length: 3655 seconds
#
# Revision: 0
# Processed by: cddbd v1.4PL0 Copyright (c) Steve Scherf et al.
# Submitted via: CDex 1.50beta9
#
DISCID=780e4509
DTITLE=Stephen Rhodes - Faeries and Dreams
DYEAR=2003
DGENRE=New Age
TTITLE0=Soothing Dreams
TTITLE1=Faery Blessings
TTITLE2=Faery Isle
TTITLE3=Faery Mist
TTITLE4=Dancing Faeries
TTITLE5=Wand of Trust
TTITLE6=Peace
TTITLE7=Wisdom
TTITLE8=Bluebell Wood
EXTD=YEAR: 2003
EXTT0=
EXTT1=
EXTT2=
EXTT3=
EXTT4=
EXTT5=
EXTT6=
EXTT7=
EXTT8=
PLAYORDER=
